# xmcd
#
# Track frame offsets: 
#        150
#        25719
#        46652
#        62767
#        82400
#        101627
#        116050
#        130147
#        147957
#        165547
#        182840
#        205450
#        232222
#        252370
#
# Disc length: 3547 seconds
#
# Revision: 5
# Processed by: cddbd v1.5.2PL0 Copyright (c) Steve Scherf et al.
# Submitted via: ExactAudioCopy v0.95b3
#
DISCID=cc0dd90e
DTITLE=Various Artist - Hit Parade Italiana - Disc 2
DYEAR=2001
DGENRE=Pop
TTITLE0=Claudio Baglioni - Questo Piccolo Grande Amore
TTITLE1=Ornella Vanoni - L'appuntamento
TTITLE2=Lucio Battisti - Acqua Azzurra Acqua Chiara
TTITLE3=PFM - Impressioni Di Settembre
TTITLE4=Renato Zero - Il Cielo
TTITLE5=Gianni Morandi - In Ginocchio Da Te
TTITLE6=Mina - Mi Sei Scoppiato Dentro Il Cuore
TTITLE7=Zucchero - Come Sole All'improvviso
TTITLE8=Fabio Concato - Fiore Di Maggio
TTITLE9=Pino Daniele - Napule È
TTITLE10=Edoardo Bennato - Sono Solo Canzonette
TTITLE11=Vasco Rossi - Siamo Solo Noi
TTITLE12=Eugenio Finardi - Musica Ribelle
TTITLE13=Enzo Iannacci - Vengo Anch'io No Tu No
EXTD=
EXTT0=
EXTT1=
EXTT2=
EXTT3=
EXTT4=
EXTT5=
EXTT6=
EXTT7=
EXTT8=
EXTT9=
EXTT10=
EXTT11=
EXTT12=
EXTT13=
PLAYORDER=
